<svg height="512pt" viewBox="0 0 512 512" width="512pt" xmlns="http://www.w3.org/2000/svg"><path d="m436.8125 75.1875c-48.484375-48.484375-112.699219-75.1875-180.8125-75.1875s-132.328125 26.703125-180.8125 75.1875-75.1875 112.699219-75.1875 180.8125c0 60 21.078125 117.878906 59.480469 163.707031-2.574219 23.375-14.632813 45.542969-33.652344 59.734375l-25.828125 19.371094 44.695312 10.324219c8.421876 1.941406 16.875 2.691406 25.234376 2.691406 26.136718 0 51.332031-10.09375 71.488281-27.449219 36.113281 18.101563 75.5 27.621094 114.582031 27.621094 68.113281 0 132.328125-26.703125 180.8125-75.1875s75.1875-112.699219 75.1875-180.8125-26.703125-132.328125-75.1875-180.8125zm-180.8125 406.8125c-46.675781 0-81.574219-13.371094-120.003906-34.65625-8.757813 9.234375-29.949219 36.5625-70.171875 34.566406 17.753906-22.789062 23.1875-46.277344 24.328125-72.652344-40.875-46.367187-60.152344-97.433593-60.152344-153.257812 0-124.617188 101.382812-226 226-226s226 101.382812 226 226-101.382812 226-226 226zm0 0"/><path d="m346 226c33.085938 0 60-26.914062 60-60s-26.914062-60-60-60-60 26.914062-60 60c0 3.09375.234375 6.132812.6875 9.101562l-103.238281 44.242188c-10.980469-14.1875-28.160157-23.34375-47.449219-23.34375-33.085938 0-60 26.914062-60 60s26.914062 60 60 60c19.289062 0 36.46875-9.15625 47.449219-23.34375l103.238281 44.242188c-.453125 2.96875-.6875 6.007812-.6875 9.101562 0 33.085938 26.914062 60 60 60s60-26.914062 60-60-26.914062-60-60-60c-19.289062 0-36.46875 9.15625-47.449219 23.34375l-103.238281-44.242188c.453125-2.96875.6875-6.007812.6875-9.101562s-.234375-6.132812-.6875-9.101562l103.238281-44.242188c10.980469 14.1875 28.160157 23.34375 47.449219 23.34375zm0 90c16.542969 0 30 13.457031 30 30s-13.457031 30-30 30-30-13.457031-30-30 13.457031-30 30-30zm-210-30c-16.542969 0-30-13.457031-30-30s13.457031-30 30-30 30 13.457031 30 30-13.457031 30-30 30zm210-150c16.542969 0 30 13.457031 30 30s-13.457031 30-30 30-30-13.457031-30-30 13.457031-30 30-30zm0 0"/></svg>