<svg height="512pt" viewBox="0 0 512 512" width="512pt" xmlns="http://www.w3.org/2000/svg"><path d="m61 210h90v-90h-90zm30-60h30v30h-30zm0 0"/><path d="m61 330h90v-90h-90zm30-60h30v30h-30zm0 0"/><path d="m61 452h90v-90h-90zm30-60h30v30h-30zm0 0"/><path d="m181 452h90v-90h-90zm30-60h30v30h-30zm0 0"/><path d="m0 0v512h331v-190.785156l51.214844-51.214844h129.785156v-270zm211 270h30v30h-30zm-90-240h60v30h-60zm-91 0h61v30h-61zm271 285v167h-271v-392h151v240h90v-60h30.199219zm181-75h-112.214844l-38.785156 38.785156v-38.785156h-120v-210h271zm0 0"/><path d="m308.789062 60c-29.277343 0-52.210937 24.332031-52.210937 55.394531 0 38.417969 32.929687 59.496094 89.421875 108.457031 55.304688-47.933593 89.425781-69.972656 89.425781-108.457031 0-31.0625-22.9375-55.394531-52.210937-55.394531-14.488282 0-27.238282 5.894531-37.210938 17.125-9.980468-11.230469-22.726562-17.125-37.214844-17.125zm51.65625 51.292969c.4375-1.457031 6.664063-21.292969 22.765626-21.292969 14.582031 0 22.210937 12.773438 22.210937 25.394531 0 20.128907-20.925781 36.113281-59.421875 68.84375-36.640625-31.148437-59.425781-48.378906-59.425781-68.84375 0-12.621093 7.628906-25.394531 22.210937-25.394531 16.097656 0 22.324219 19.816406 22.769532 21.292969l3.785156 14.546875c11.328125.007812 9.957031.007812 21.285156.019531zm0 0"/></svg>