<svg height="512pt" viewBox="0 0 512 512" width="512pt" xmlns="http://www.w3.org/2000/svg"><path d="m512 451v-451h-512v451h181v31h-30v30h210v-30h-30v-31zm-30-421v331h-452v-331zm-452 361h452v30h-452zm271 91h-90v-31h90zm0 0"/><path d="m211 136c0-24.8125-20.1875-45-45-45s-45 20.1875-45 45 20.1875 45 45 45 45-20.1875 45-45zm-45 15c-8.269531 0-15-6.730469-15-15s6.730469-15 15-15 15 6.730469 15 15-6.730469 15-15 15zm0 0"/><path d="m241 256c0-41.355469-33.644531-75-75-75s-75 33.644531-75 75v45h150zm-30 15h-90v-15c0-24.8125 20.1875-45 45-45s45 20.1875 45 45zm0 0"/><path d="m381.40625 291.40625 21.214844 21.214844c31.199218-31.199219 48.378906-72.613282 48.378906-116.621094s-17.179688-85.421875-48.378906-116.621094l-21.214844 21.214844c25.53125 25.53125 39.59375 59.414062 39.59375 95.40625s-14.0625 69.875-39.59375 95.40625zm0 0"/><path d="m360.21875 270.21875c19.847656-19.851562 30.78125-46.207031 30.78125-74.21875s-10.933594-54.367188-30.78125-74.21875l-21.214844 21.214844c14.183594 14.183594 21.996094 33.007812 21.996094 53.003906s-7.8125 38.820312-21.996094 53.003906zm0 0"/><path d="m317.808594 227.808594c8.507812-8.507813 13.191406-19.800782 13.191406-31.808594s-4.683594-23.300781-13.191406-31.808594l-21.210938 21.214844c2.839844 2.839844 4.402344 6.601562 4.402344 10.59375 0 3.988281-1.5625 7.753906-4.40625 10.59375zm0 0"/></svg>