<svg height="512pt" viewBox="0 0 512 512" width="512pt" xmlns="http://www.w3.org/2000/svg"><path d="m241 226c0-24.8125-20.1875-45-45-45s-45 20.1875-45 45v15h-90v210h270v-210h-90zm-60 0c0-8.269531 6.730469-15 15-15s15 6.730469 15 15v15h-30zm-90 195v-90h30v30h30v-30h90v30h30v-30h30v90zm210-120h-210v-30h210zm0 0"/><path d="m0 0v512h512v-512zm482 30v91h-452v-91zm-452 452v-331h452v331zm0 0"/><path d="m241 60h210v30h-210zm0 0"/><path d="m61 60h30v30h-30zm0 0"/><path d="m121 60h30v30h-30zm0 0"/><path d="m181 60h30v30h-30zm0 0"/><path d="m361 241h90v30h-90zm0 0"/><path d="m361 301h90v30h-90zm0 0"/><path d="m361 361h90v30h-90zm0 0"/><path d="m361 421h90v30h-90zm0 0"/></svg>