<svg height="512pt" viewBox="0 0 512 512" width="512pt" xmlns="http://www.w3.org/2000/svg"><path d="m347 0c-90.980469 0-165 74.019531-165 165s74.019531 165 165 165 165-74.019531 165-165-74.019531-165-165-165zm0 300c-74.4375 0-135-60.5625-135-135s60.5625-135 135-135 135 60.5625 135 135-60.5625 135-135 135zm0 0"/><path d="m242 150v15c0 57.898438 47.101562 105 105 105s105-47.101562 105-105v-15zm105 90c-36.21875 0-66.523438-26.007812-73.492188-60.199219h146.984376c-6.96875 34.191407-37.273438 60.199219-73.492188 60.199219zm0 0"/><path d="m240.003906 413.210938 42.421875-42.421876-128.789062-128.789062h-153.636719v150h43.65625l141.691406 120h204.652344v-90h-141.207031zm119.996094 68.789062h-163.65625l-141.691406-120h-24.652344v-90h111.207031l98.789063 98.789062-21.207032 21.207032-55.605468-55.601563-21.210938 21.210938 94.390625 94.394531h123.636719zm0 0"/><path d="m272 90h60v30h-60zm0 0"/><path d="m362 90h60v30h-60zm0 0"/></svg>