<svg height="512pt" viewBox="-31 0 512 512" width="512pt" xmlns="http://www.w3.org/2000/svg"><path d="m390 145.421875v-145.421875h-330v145.421875l-60 42.859375v262.71875h90v61l108.941406-61h251.058594v-262.71875zm-97.191406 170.578125 127.191406-90.851562v181.703124zm116.382812-120-19.191406 13.710938v-27.421876zm-49.191406-166v201.136719l-93 66.429687-42-30-42 30-93-66.429687v-201.136719zm-202.808594 286-127.191406 90.851562v-181.703124zm-97.191406-106.289062-19.191406-13.710938 19.191406-13.710938zm131.058594 211.289062-71.058594 40.109375v-40.109375h-58.191406l163.191406-116.566406 163.191406 116.566406zm0 0"/><path d="m120 76h210v30h-210zm0 0"/><path d="m120 136h210v30h-210zm0 0"/><path d="m120 196h210v30h-210zm0 0"/></svg>