<svg height="512pt" viewBox="0 0 512 512" width="512pt" xmlns="http://www.w3.org/2000/svg"><path d="m442.214844 211h69.785156v-211h-271v177.792969l-138.265625 63.207031h-102.734375v120h31v151h90v-143.253906l180 77.144531v35.109375h90v-120h15c24.8125 0 45-20.1875 45-45s-20.1875-45-45-45h-15v-8.785156zm-351.214844 271h-30v-121h30zm0-151h-61v-60h61zm210 82.253906-180-77.144531v-70.472656l120-54.859375v.222656h60zm30 37.746094v-240h30.117188l.003906 240zm75-150c8.269531 0 15 6.730469 15 15s-6.730469 15-15 15h-15v-30zm-15-81.210938v-38.789062h-120v-151h211v151h-52.214844zm0 0"/><path d="m450.972656 106c0 8.285156-6.71875 15-15 15-8.285156 0-15-6.714844-15-15s6.714844-15 15-15c8.28125 0 15 6.714844 15 15zm0 0"/><path d="m390.972656 106c0 8.285156-6.71875 15-15 15-8.285156 0-15-6.714844-15-15s6.714844-15 15-15c8.28125 0 15 6.714844 15 15zm0 0"/><path d="m330.972656 106c0 8.285156-6.71875 15-15 15-8.285156 0-15-6.714844-15-15s6.714844-15 15-15c8.28125 0 15 6.714844 15 15zm0 0"/></svg>