<svg height="512pt" viewBox="-91 0 512 512" width="512pt" xmlns="http://www.w3.org/2000/svg"><path d="m239.796875 273.464844-29.59375-4.929688-5.410156 32.464844h-59.585938l4.589844-27.535156-29.59375-4.929688-5.410156 32.464844h-54.792969v30h49.792969l-10 60h-39.792969v30h34.792969l-4.589844 27.535156 29.59375 4.929688 5.410156-32.464844h59.585938l-4.589844 27.535156 29.59375 4.929688 5.410156-32.464844h54.792969v-30h-49.792969l10-60h39.792969v-30h-34.792969zm-50.003906 117.535156h-59.585938l10-60h59.585938zm0 0"/><path d="m200 61h-20v-61h-30v61h-20l-130 97.5v353.5h330v-353.5zm-60 30h10v60h-30v30h90v-30h-30v-60h10l110 82.5v37.5h-270v-37.5zm-110 391v-241h270v241zm0 0"/></svg>