<svg height="512pt" viewBox="0 0 512 512" width="512pt" xmlns="http://www.w3.org/2000/svg"><path d="m121 314.027344 132.042969-88.027344-132.042969-88.027344zm30-120 47.957031 31.972656-47.957031 31.972656zm0 0"/><path d="m0 0v512h331v-512zm301 482h-271v-61h121v30h30v-30h120zm0-91h-271v-361h271zm0 0"/><path d="m91 121h30v-30h-60v60h30zm0 0"/><path d="m121 331h-30v-30h-30v60h60zm0 0"/><path d="m241 151h30v-60h-60v30h30zm0 0"/><path d="m241 331h-30v30h60v-60h-30zm0 0"/><path d="m463.621094 109.378906-21.214844 21.214844c25.53125 25.53125 39.59375 59.414062 39.59375 95.40625s-14.0625 69.875-39.59375 95.40625l21.214844 21.214844c31.195312-31.199219 48.378906-72.613282 48.378906-116.621094s-17.183594-85.421875-48.378906-116.621094zm0 0"/><path d="m421.21875 151.78125-21.214844 21.214844c14.183594 14.183594 21.996094 33.007812 21.996094 53.003906s-7.8125 38.820312-21.996094 53.003906l21.214844 21.214844c19.847656-19.851562 30.78125-46.210938 30.78125-74.21875s-10.933594-54.367188-30.78125-74.21875zm0 0"/><path d="m357.597656 215.40625c2.839844 2.839844 4.402344 6.601562 4.402344 10.59375s-1.5625 7.753906-4.402344 10.59375l21.210938 21.214844c8.507812-8.507813 13.191406-19.804688 13.191406-31.808594s-4.683594-23.300781-13.191406-31.808594zm0 0"/></svg>