<svg height="512pt" viewBox="0 0 512 512" width="512pt" xmlns="http://www.w3.org/2000/svg"><path d="m512 451v-451h-512v451h181v31h-30v30h210v-30h-30v-31zm-30-421v331h-452v-331zm-452 361h452v30h-452zm271 91h-90v-31h90zm0 0"/><path d="m112.96875 299.949219c27.164062-.292969 77.707031-.839844 136.324219 28.46875l6.707031 3.351562 6.707031-3.351562c58.648438-29.324219 109.140625-28.769531 136.261719-28.472657 2.558594.03125 22.03125.054688 22.03125.054688v-240l-15 .199219c-23.652344 0-82.121094-3.734375-150 28.132812-59.253906-27.820312-106.066406-28.332031-150-28.332031h-15v240s19.433594-.023438 21.96875-.050781zm278.03125-210.066407v180c-26.136719-.070312-69.804688 1.613282-120 21.90625v-177.335937c49.777344-22.851563 93.015625-24.644531 120-24.570313zm-270 0c8.484375-.027343 18.59375.132813 30 1.074219v59.042969h30v-54.917969c18.253906 3.558594 38.511719 9.503907 60 19.371094v177.335937c-49.378906-19.953124-92.492188-21.902343-118.765625-21.902343-.414063 0-.828125 0-1.234375 0zm0 0"/></svg>