<svg height="512pt" viewBox="0 0 512 512" width="512pt" xmlns="http://www.w3.org/2000/svg"><path d="m0 0v512h512v-512zm482 30v91h-452v-91zm-452 452v-331h452v331zm0 0"/><path d="m61 61h30v30h-30zm0 0"/><path d="m121 61h30v30h-30zm0 0"/><path d="m181 61h30v30h-30zm0 0"/><path d="m241 61h211v30h-211zm0 0"/><path d="m61 451h270v-270h-270zm30-30v-40l75-100 82.5 110h37.5v-30h-22.5l-26.265625-35.019531 18.765625-18.765625 45 45v68.785156zm210-210v98.785156l-45-45-36.949219 36.949219-53.050781-70.734375-75 100v-120zm0 0"/><path d="m361 241h91v30h-91zm0 0"/><path d="m361 181h91v30h-91zm0 0"/><path d="m361 301h91v30h-91zm0 0"/><path d="m361 361h91v30h-91zm0 0"/><path d="m361 421h91v30h-91zm0 0"/></svg>