<svg height="512pt" viewBox="-31 0 512 512" width="512pt" xmlns="http://www.w3.org/2000/svg"><path d="m450 226c0-124.082031-100.726562-226-225-226-124.09375 0-225 101.726562-225 226 0 90.105469 53.246094 167.996094 129.921875 203.894531-22.976563 12.472657-39.921875 37.4375-39.921875 67.105469v15h270v-15c0-29.101562-16.4375-54.355469-39.921875-67.105469 76.675781-35.898437 129.921875-113.789062 129.921875-203.894531zm-150-180.914062v107.511718c-19.074219-19.484375-45.644531-31.597656-75-31.597656s-55.925781 12.113281-75 31.597656v-107.511718c23.101562-9.710938 48.4375-15.085938 75-15.085938s51.898438 5.375 75 15.085938zm-75 255.914062c-41.355469 0-75-33.644531-75-75s33.644531-75 75-75 75 33.644531 75 75-33.644531 75-75 75zm60 150c19.28125 0 36.199219 13.167969 42.441406 31h-204.882812c6.242187-17.832031 23.160156-31 42.441406-31zm-60-30c-107.523438 0-195-87.476562-195-195 0-69.246094 35.910156-130.222656 90-165.097656v165.097656c0 57.898438 47.101562 105 105 105s105-47.101562 105-105v-165.097656c54.085938 34.875 90 95.851562 90 165.097656 0 107.523438-87.476562 195-195 195zm0 0"/><path d="m225 181c-24.8125 0-45 20.1875-45 45s20.1875 45 45 45 45-20.1875 45-45-20.1875-45-45-45zm0 60c-8.269531 0-15-6.730469-15-15s6.730469-15 15-15 15 6.730469 15 15-6.730469 15-15 15zm0 0"/><path d="m210 61h30v30h-30zm0 0"/></svg>