<svg height="512pt" viewBox="-26 0 512 512.001" width="512pt" xmlns="http://www.w3.org/2000/svg"><path d="m399.269531 150h-30v-60h-60v30h30v30h-30v30h90zm0 0"/><path d="m459.269531 135c0-57.894531-47.101562-105-105-105-34.878906 0-65.835937 17.101562-84.941406 43.351562-8.011719-3.429687-16.296875-6.230468-24.757813-8.355468 3-6.027344 4.699219-12.816406 4.699219-19.996094 0-24.8125-20.1875-45-45-45s-45 20.1875-45 45c0 7.175781 1.699219 13.960938 4.699219 19.988281-71.5625 18.03125-124.699219 82.929688-124.699219 160.011719v148.460938l-39.269531 78.539062h144.273438c0 33.085938 26.914062 60 60 60 33.082031 0 60-26.914062 60-60h144.269531l-39.269531-78.539062v-134.535157c50.8125-7.300781 89.996093-51.121093 89.996093-103.925781zm-105-75c41.355469 0 75 33.644531 75 75s-33.644531 75-75 75-75-33.644531-75-75 33.644531-75 75-75zm-165-15c0-8.269531 6.730469-15 15-15 8.273438 0 15 6.730469 15 15 0 8.273438-6.726562 15-15 15-8.269531 0-15-6.726562-15-15zm15 45c17.515625 0 34.90625 3.4375 51.007813 9.992188-3.882813 10.957031-6.007813 22.738281-6.007813 35.007812 0 52.804688 39.183594 96.625 90 103.925781v123.074219h-270v-137c0-74.4375 60.5625-135 135-135zm0 392c-16.542969 0-30-13.65625-30-30.199219h60c0 16.542969-13.457031 30.199219-30 30.199219zm-155.726562-60 15-30h281.457031l15 30zm0 0"/></svg>