<svg height="512pt" viewBox="-31 0 512 512" width="512pt" xmlns="http://www.w3.org/2000/svg"><path d="m135 150c36.21875 0 66.523438-25.808594 73.492188-60h33.019531c6.964843 34.191406 37.269531 60 73.488281 60 36.222656 0 66.523438-25.808594 73.492188-60h31.507812v-30h-31.507812c-6.96875-34.191406-37.273438-60-73.492188-60s-66.523438 25.808594-73.492188 60h-33.019531c-6.964843-34.191406-37.269531-60-73.488281-60s-66.523438 25.808594-73.492188 60h-31.507812v30h31.507812c6.96875 34.191406 37.273438 60 73.492188 60zm180-120c24.8125 0 45 20.1875 45 45s-20.1875 45-45 45-45-20.1875-45-45 20.1875-45 45-45zm-180 0c24.8125 0 45 20.1875 45 45s-20.1875 45-45 45-45-20.1875-45-45 20.1875-45 45-45zm0 0"/><path d="m252.566406 211h-55.132812l-197.433594-65.8125v301.566406l192.527344 65.246094h64.945312l192.527344-65.246094v-301.566406zm-12.566406 210h-30v-120h30zm0-150h-30v-30h30zm-30 180h30v31h-30zm-180-264.1875 150 50v239.265625l-150-50.832031zm390 238.433594-150 50.832031v-239.265625l150-50zm0 0"/></svg>