<svg height="512pt" viewBox="-31 0 512 512" width="512pt" xmlns="http://www.w3.org/2000/svg"><path d="m225 331c24.8125 0 45-20.1875 45-45s-20.1875-45-45-45-45 20.1875-45 45 20.1875 45 45 45zm0-60c8.269531 0 15 6.730469 15 15s-6.730469 15-15 15-15-6.730469-15-15 6.730469-15 15-15zm0 0"/><path d="m105 331c24.8125 0 45-20.1875 45-45s-20.1875-45-45-45-45 20.1875-45 45 20.1875 45 45 45zm0-60c8.269531 0 15 6.730469 15 15s-6.730469 15-15 15-15-6.730469-15-15 6.730469-15 15-15zm0 0"/><path d="m345 331c24.8125 0 45-20.1875 45-45s-20.1875-45-45-45-45 20.1875-45 45 20.1875 45 45 45zm0-60c8.269531 0 15 6.730469 15 15s-6.730469 15-15 15-15-6.730469-15-15 6.730469-15 15-15zm0 0"/><path d="m120 451c26.597656 0 48.625-12.359375 56.691406-30h96.617188c8.066406 17.640625 30.09375 30 56.691406 30 33.644531 0 60-19.765625 60-45s-26.355469-45-60-45c-26.597656 0-48.625 12.359375-56.691406 30h-96.617188c-8.066406-17.640625-30.09375-30-56.691406-30-33.644531 0-60 19.765625-60 45s26.355469 45 60 45zm210-60c18.3125 0 30 8.882812 30 15s-11.6875 15-30 15-30-8.882812-30-15 11.6875-15 30-15zm-210 0c18.3125 0 30 8.882812 30 15s-11.6875 15-30 15-30-8.882812-30-15 11.6875-15 30-15zm0 0"/><path d="m0 0v512h450v-512zm420 482h-390v-271h390zm0-301h-390v-151h390zm0 0"/><path d="m145.609375 146.609375-21.214844-21.214844 60-60 21.210938 21.214844zm0 0"/><path d="m244.390625 125.394531 60-60 21.214844 21.214844-60 59.996094zm0 0"/></svg>