<svg height="512pt" viewBox="0 0 512 512" width="512pt" xmlns="http://www.w3.org/2000/svg"><path d="m420.148438 60c-1.4375-12.695312-4.691407-24.480469-9.519532-34.136719-8.339844-16.675781-20.636718-25.863281-34.628906-25.863281s-26.289062 9.1875-34.628906 25.863281c-4.828125 9.65625-8.082032 21.441407-9.523438 34.136719h-31.699218c-1.4375-12.695312-4.691407-24.480469-9.519532-34.136719-8.339844-16.675781-20.636718-25.863281-34.628906-25.863281s-26.289062 9.1875-34.628906 25.863281c-4.828125 9.65625-8.082032 21.441407-9.523438 34.136719h-31.699218c-1.4375-12.695312-4.691407-24.480469-9.519532-34.136719-8.339844-16.675781-20.636718-25.863281-34.628906-25.863281s-26.289062 9.1875-34.628906 25.863281c-4.828125 9.65625-8.082032 21.441407-9.519532 34.136719h-91.851562v452h512v-452zm-51.945313-20.71875c3.832031-7.667969 7.277344-9.28125 7.796875-9.28125s3.964844 1.613281 7.796875 9.28125c2.84375 5.683594 4.929687 12.855469 6.105469 20.71875h-27.804688c1.175782-7.863281 3.261719-15.035156 6.105469-20.71875zm-120 0c3.832031-7.667969 7.277344-9.28125 7.796875-9.28125s3.964844 1.613281 7.796875 9.28125c2.84375 5.683594 4.929687 12.855469 6.105469 20.71875h-27.804688c1.175782-7.863281 3.261719-15.035156 6.105469-20.71875zm-120 0c3.832031-7.667969 7.277344-9.28125 7.796875-9.28125s3.964844 1.613281 7.796875 9.28125c2.84375 5.683594 4.929687 12.855469 6.105469 20.71875h-27.804688c1.175782-7.863281 3.261719-15.035156 6.105469-20.71875zm21.699219 50.71875c-1.175782 7.863281-3.261719 15.035156-6.105469 20.71875-3.832031 7.667969-7.277344 9.28125-7.796875 9.28125v30c13.992188 0 26.289062-9.1875 34.628906-25.863281 4.828125-9.65625 8.082032-21.644531 9.523438-34.335938h89.75c-1.175782 7.859375-3.261719 15.234375-6.105469 20.917969-3.832031 7.667969-7.277344 9.28125-7.796875 9.28125v30c13.992188 0 26.289062-9.1875 34.628906-25.863281 4.828125-9.65625 8.082032-21.644531 9.523438-34.335938h89.75c-1.175782 7.859375-3.261719 15.234375-6.105469 20.917969-3.832031 7.667969-7.277344 9.28125-7.796875 9.28125v30c13.992188 0 26.289062-9.1875 34.628906-25.863281 4.828125-9.65625 8.082032-21.441407 9.523438-34.136719h61.847656v91h-452v-91zm-119.902344 392v-271h452v271zm0 0"/><path d="m181 286c0-24.8125-20.1875-45-45-45s-45 20.1875-45 45 20.1875 45 45 45 45-20.1875 45-45zm-45 15c-8.269531 0-15-6.730469-15-15s6.730469-15 15-15 15 6.730469 15 15-6.730469 15-15 15zm0 0"/><path d="m136 331c-41.355469 0-75 33.644531-75 75v45h150v-45c0-41.355469-33.644531-75-75-75zm45 90h-90v-15c0-24.8125 20.1875-45 45-45s45 20.1875 45 45zm0 0"/><path d="m271 241h180v30h-180zm0 0"/><path d="m271 301h180v30h-180zm0 0"/><path d="m271 361h180v30h-180zm0 0"/><path d="m271 421h180v30h-180zm0 0"/></svg>