<svg height="512pt" viewBox="0 -61 512 512" width="512pt" xmlns="http://www.w3.org/2000/svg"><path d="m482 300v-300h-452v300h-30v15c0 41.355469 33.644531 75 75 75h362c41.355469 0 75-33.644531 75-75v-15zm-422-270h392v270h-392zm377 330h-362c-19.558594 0-36.238281-12.738281-42.429688-30.199219h446.859376c-6.191407 17.460938-22.871094 30.199219-42.429688 30.199219zm0 0"/><path d="m121 60v210h270v-210zm135 113.785156-83.785156-83.785156h167.570312zm-51.214844-8.785156-53.785156 53.785156v-107.570312zm21.214844 21.214844 30 30 30-30 53.785156 53.785156h-167.570312zm81.214844-21.214844 53.785156-53.785156v107.570312zm0 0"/></svg>