<svg height="512pt" viewBox="-61 0 512 512" width="512pt" xmlns="http://www.w3.org/2000/svg"><path d="m390 87.292969-104.753906 17.460937 17.460937-104.753906h-215.414062l17.460937 104.753906-104.753906-17.460937v215.414062l104.753906-17.460937-17.460937 104.753906h62.707031v122h90v-122h62.707031l-17.460937-104.753906 104.753906 17.460937zm-270 107.707031c0-41.355469 33.644531-75 75-75s75 33.644531 75 75-33.644531 75-75 75-75-33.644531-75-75zm147.292969-165-13.058594 78.351562c-16.871094-11.570312-37.273437-18.351562-59.234375-18.351562s-42.363281 6.78125-59.234375 18.351562l-13.058594-78.351562zm-237.292969 92.707031 78.351562 13.058594c-11.570312 16.871094-18.351562 37.273437-18.351562 59.234375s6.78125 42.363281 18.351562 59.234375l-78.351562 13.058594zm180 359.292969h-30v-92h30zm-87.292969-122 13.058594-78.351562c16.871094 11.570312 37.273437 18.351562 59.234375 18.351562s42.363281-6.78125 59.234375-18.351562l13.058594 78.351562zm237.292969-92.707031-78.351562-13.058594c11.570312-16.871094 18.351562-37.273437 18.351562-59.234375s-6.78125-42.363281-18.351562-59.234375l78.351562-13.058594zm0 0"/><path d="m195 240c24.8125 0 45-20.1875 45-45s-20.1875-45-45-45-45 20.1875-45 45 20.1875 45 45 45zm0-60c8.269531 0 15 6.730469 15 15s-6.730469 15-15 15-15-6.730469-15-15 6.730469-15 15-15zm0 0"/></svg>