<svg height="512pt" viewBox="0 0 512 512" width="512pt" xmlns="http://www.w3.org/2000/svg"><path d="m450.953125 119.988281v-59.996093h-89.992187v290.511718l44.996093 89.992188 44.996094-89.992188v-200.519531h30.996094v120.988281h29.996093v-150.984375zm-29.996094-29.996093v29.996093h-30v-29.996093zm0 253.429687-15 29.996094-15-29.996094v-193.4375h30zm0 0"/><path d="m0 44.996094v361.960937c0 24.808594 20.183594 44.996094 44.996094 44.996094h14.996094v21.949219l44.996093 38.097656 44.996094-38.097656v-21.949219h180.980469v-451.953125h-285.96875c-24.8125 0-44.996094 20.183594-44.996094 44.996094zm44.996094-15h14.996094v331.964844h-14.996094c-5.257813 0-10.304688.914062-15 2.582031v-319.546875c0-8.269532 6.730468-15 15-15zm0 391.960937c-8.269532 0-15-6.730469-15-15s6.730468-15 15-15h14.996094v30zm59.992187 50.738281-14.996093-12.699218v-68.039063h29.996093v68.039063zm195.980469-50.738281h-150.984375v-30h150.984375zm0-59.996093h-210.976562v-331.964844h210.976562zm0 0"/><path d="m270.972656 59.992188h-150.984375v89.992187h150.984375zm-30 59.996093h-90.988281v-29.996093h90.988281zm0 0"/><path d="m119.988281 180.980469h150.984375v29.996093h-150.984375zm0 0"/><path d="m119.988281 240.972656h150.984375v30h-150.984375zm0 0"/><path d="m149.984375 301.96875h90.988281v29.996094h-90.988281zm0 0"/></svg>