<svg height="512pt" viewBox="0 0 512 512" width="512pt" xmlns="http://www.w3.org/2000/svg"><path d="m489.578125 4.675781c-1.691406.355469-42.011719 8.871094-94.472656 29.183594-70.859375 27.4375-127.246094 61.808594-167.597657 102.15625-62.117187 62.117187-99.613281 156.34375-109.734374 236.773437l-28.253907 28.238282-21.089843-21.089844-21.210938 21.210938 21.082031 21.082031-68.300781 68.261719 21.203125 21.214843 68.308594-68.261719 21.335937 21.335938 21.210938-21.210938-21.332032-21.332031 27.96875-27.945312c81.691407-10.117188 175.78125-48.292969 237.285157-109.800781 40.351562-40.351563 74.722656-96.738282 102.15625-167.597657 20.3125-52.460937 28.832031-92.78125 29.183593-94.472656l4.679688-22.421875zm-48.058594 44.570313-124.554687 124.476562v-68.777344c43.636718-26.320312 89.984375-44.390624 124.554687-55.699218zm21.257813 21.160156c-11.28125 34.496094-29.296875 80.75-55.542969 124.332031h-68.863281zm-175.808594 54.386719v78.90625l-55.066406 55.035156v-83.109375c5.269531-6.289062 10.867187-12.445312 16.816406-18.398438 11.761719-11.761718 24.679688-22.554687 38.25-32.433593zm-84.863281 93.332031v70.585938l-46.839844 46.613281c10.585937-44.398438 27.171875-84.140625 46.839844-117.199219zm-25.960938 138.738281 47.171875-47.339843h71.1875c-33.855468 20.234374-74.144531 36.851562-118.359375 47.339843zm178.625-93.582031c-5.808593 5.808594-11.808593 11.28125-17.945312 16.445312h-83.496094l55.027344-55.191406h79.066406c-9.9375 13.675782-20.800781 26.898438-32.652344 38.746094zm0 0"/></svg>