<svg height="512pt" viewBox="-61 0 512 512" width="512pt" xmlns="http://www.w3.org/2000/svg"><path d="m330 120v-60h-180v-15c0-24.8125-20.1875-45-45-45s-45 20.1875-45 45v15h-60v392h60v60h330v-392zm-240-75c0-8.269531 6.730469-15 15-15s15 6.730469 15 15v15h-30zm-60 45h30v45c0 24.8125 20.1875 45 45 45s45-20.1875 45-45v-15h-30v15c0 8.269531-6.730469 15-15 15s-15-6.730469-15-15v-45h210v332h-270zm330 392h-270v-30h240v-302h30zm0 0"/><path d="m120 360h150v30h-150zm0 0"/><path d="m60 360h30v30h-30zm0 0"/><path d="m120 300h150v30h-150zm0 0"/><path d="m60 300h30v30h-30zm0 0"/><path d="m120 240h150v30h-150zm0 0"/><path d="m60 240h30v30h-30zm0 0"/><path d="m180 210h90v-90h-90zm30-60h30v30h-30zm0 0"/></svg>