<svg height="512pt" viewBox="-61 0 512 512" width="512pt" xmlns="http://www.w3.org/2000/svg"><path d="m390 256c0-24.8125-20.1875-45-45-45s-45 20.1875-45 45c0 19.347656 12.273438 35.878906 29.441406 42.222656-6.199218 68.734375-64.121094 122.777344-134.441406 122.777344s-128.242188-54.042969-134.441406-122.777344c17.167968-6.34375 29.441406-22.875 29.441406-42.222656 0-24.8125-20.1875-45-45-45s-45 20.1875-45 45c0 19.730469 12.769531 36.523438 30.476562 42.582031 5.289063 69.824219 54.226563 127.648438 119.523438 146.179688v37.238281h-60v30h210v-30h-60v-37.238281c65.296875-18.53125 114.234375-76.355469 119.523438-146.179688 17.707031-6.058593 30.476562-22.851562 30.476562-42.582031zm-345-15c8.269531 0 15 6.730469 15 15s-6.730469 15-15 15-15-6.730469-15-15 6.730469-15 15-15zm165 241h-30v-31.6875c4.941406.445312 9.941406.6875 15 .6875s10.058594-.242188 15-.6875zm135-211c-8.269531 0-15-6.730469-15-15s6.730469-15 15-15 15 6.730469 15 15-6.730469 15-15 15zm0 0"/><path d="m195 391c57.898438 0 105-47.101562 105-105v-181c0-57.898438-47.101562-105-105-105s-105 47.101562-105 105v181c0 57.898438 47.101562 105 105 105zm0-30c-41.355469 0-75-33.644531-75-75v-15h150v15c0 41.355469-33.644531 75-75 75zm0-331c41.355469 0 75 33.644531 75 75v136h-150v-136c0-41.355469 33.644531-75 75-75zm0 0"/><path d="m150 60h30v30h-30zm0 0"/><path d="m210 60h30v30h-30zm0 0"/><path d="m150 120h30v30h-30zm0 0"/><path d="m210 120h30v30h-30zm0 0"/><path d="m150 180h30v30h-30zm0 0"/><path d="m210 180h30v30h-30zm0 0"/></svg>