<svg height="512pt" viewBox="0 0 512 512" width="512pt" xmlns="http://www.w3.org/2000/svg"><path d="m239.96875 302.453125v-14.964844c0-41.265625-33.574219-74.839843-74.839844-74.839843h-14.964844v98.574218l-21.167968 21.167969h-38.703125v-29.9375h-89.804688v209.546875h89.804688v-29.933594h38.703125l29.933594 29.933594h170.84375v-209.546875zm-179.609375 179.613281h-29.9375v-149.675781h29.9375zm149.675781 0h-38.703125l-29.9375-29.9375h-51.101562v-89.804687h51.101562l38.703125-38.703125v-78.472656c17.421875 6.179687 29.9375 22.824218 29.9375 42.339843zm89.804688 0h-59.871094v-29.9375h59.871094zm0-59.871094h-59.871094v-29.933593h59.871094zm0-59.871093h-59.871094v-29.933594h59.871094zm0 0"/><path d="m511.902344 78.269531-73.652344-10.707031-32.492188-67.5625-32.503906 67.59375-40.449218 6.035156-41.828126-6.078125-32.980468-66.835937-32.988282 66.835937-41.851562 6.082031-41.851562-6.082031-32.984376-66.835937-32.972656 66.8125-75.347656 10.738281 54.929688 52.148437-12.578126 73.332032 65.96875-34.683594 65.964844 34.683594-12.597656-73.457032 21.46875-20.925781 21.46875 20.925781-12.597656 73.457032 65.96875-34.683594 65.964844 34.683594-12.597657-73.457032 21.335938-20.796874 20.695312 20.703124-12.347656 73.882813 64.734375-34.929687 64.96875 34.824218-12.304688-73.648437zm-377.375 70.753907-26.207032-13.78125-26.210937 13.78125 5.027344-29.308594-21.640625-20.546875 29.707031-4.234375 13.117187-26.578125 13.105469 26.554687 29.300781 4.257813-21.203124 20.667969zm149.675781 0-26.207031-13.78125-26.210938 13.78125 5.003906-29.183594-21.203124-20.671875 29.304687-4.257813 13.105469-26.554687 13.105468 26.554687 29.300782 4.257813-21.203125 20.671875zm146.976563-.226563-25.445313-13.636719-25.082031 13.53125 4.808594-28.761718-20.785157-20.789063 28.679688-4.277344 12.402343-25.789062 12.417969 25.820312 29.359375 4.269531-21.199218 20.640626zm0 0"/></svg>