<svg height="512pt" viewBox="0 0 512 512.001" width="512pt" xmlns="http://www.w3.org/2000/svg"><path d="m359.4375 147.148438-42.394531-85.898438-42.390625 85.898438-94.792969 13.773437 68.59375 66.859375-16.195313 94.410156 84.789063-44.574218 84.785156 44.574218-16.191406-94.410156 68.589844-66.859375zm2.558594 120.214843-44.953125-23.628906-44.949219 23.628906 8.582031-50.050781-36.363281-35.449219 50.257812-7.304687 22.472657-45.539063 22.476562 45.539063 50.257813 7.304687-36.367188 35.449219zm0 0"/><path d="m317.042969 0c-107.5 0-194.957031 87.457031-194.957031 194.957031 0 48.363281 17.710937 92.664063 46.972656 126.777344l-18.097656 18.097656-21.210938-21.207031-129.75 129.75 63.625 63.625 129.75-129.75-21.207031-21.207031 18.101562-18.101563c34.109375 29.265625 78.410157 46.972656 126.773438 46.972656 107.5 0 194.957031-87.457031 194.957031-194.957031s-87.457031-194.957031-194.957031-194.957031zm-253.417969 469.582031-21.207031-21.207031 87.332031-87.332031 21.210938 21.207031zm253.417969-109.660156c-90.960938 0-164.964844-74.003906-164.964844-164.964844 0-90.960937 74.003906-164.964843 164.964844-164.964843 90.960937 0 164.964843 74.003906 164.964843 164.964843 0 90.960938-74.003906 164.964844-164.964843 164.964844zm0 0"/></svg>