<svg height="512pt" viewBox="0 -46 512 512" width="512pt" xmlns="http://www.w3.org/2000/svg"><path d="m151 60v-60h-90v60h-61v360h512v-360zm-60-30h30v30h-30zm391 60v120h-34.796875c-13.355469-51.699219-60.390625-90-116.203125-90s-102.847656 38.300781-116.203125 90h-184.796875v-120zm-61 150c0 49.625-40.375 90-90 90s-90-40.375-90-90 40.375-90 90-90 90 40.375 90 90zm-391 150v-150h181c0 66.167969 53.832031 120 120 120s120-53.832031 120-120h31v150zm0 0"/><path d="m61 120h30v30h-30zm0 0"/><path d="m121 120h30v30h-30zm0 0"/><path d="m61 360h120v-90h-120zm30-60h60v30h-60zm0 0"/><path d="m331 180c-33.085938 0-60 26.914062-60 60s26.914062 60 60 60 60-26.914062 60-60-26.914062-60-60-60zm0 90c-16.542969 0-30-13.457031-30-30s13.457031-30 30-30 30 13.457031 30 30-13.457031 30-30 30zm0 0"/></svg>