<svg height="512pt" viewBox="-61 0 512 512" width="512pt" xmlns="http://www.w3.org/2000/svg"><path d="m364.390625 35.390625 21.214844 21.214844-60 59.996093-21.214844-21.210937zm0 0"/><path d="m25.605469 35.394531 60 59.996094-21.210938 21.214844-60-60zm0 0"/><path d="m195 163.851562c55.304688-47.933593 89.421875-69.972656 89.421875-108.457031 0-31.0625-22.933594-55.394531-52.210937-55.394531-14.488282 0-27.234376 5.894531-37.210938 17.125-9.976562-11.230469-22.722656-17.125-37.210938-17.125-29.277343 0-52.210937 24.332031-52.210937 55.394531 0 38.417969 32.929687 59.496094 89.421875 108.457031zm-37.210938-133.851562c16.09375 0 22.324219 19.816406 22.765626 21.292969l3.789062 14.546875c11.324219.007812 9.957031.007812 21.285156.019531l3.816406-14.566406c.4375-1.457031 6.664063-21.292969 22.765626-21.292969 14.582031 0 22.210937 12.773438 22.210937 25.394531 0 20.128907-20.925781 36.113281-59.421875 68.84375-36.640625-31.148437-59.425781-48.378906-59.425781-68.84375.003906-12.621093 7.632812-25.394531 22.214843-25.394531zm0 0"/><path d="m270 151v166c0 41.355469-33.644531 75-75 75s-75-33.644531-75-75v-166h-120v166c0 107.523438 87.476562 195 195 195s195-87.476562 195-195v-166zm90 30v61h-60v-61zm-270 0v61h-60v-61zm105 301c-90.980469 0-165-74.019531-165-165v-45h60v45c0 57.898438 47.101562 105 105 105s105-47.101562 105-105v-45h60v45c0 90.980469-74.019531 165-165 165zm0 0"/></svg>