<svg height="512pt" viewBox="0 0 512 512" width="512pt" xmlns="http://www.w3.org/2000/svg"><path d="m120 241h-30v30h-30v30h30v30h30v-30h30v-30h-30zm0 0"/><path d="m362 271h30v30h-30zm0 0"/><path d="m180 271h60v30h-60zm0 0"/><path d="m272 271h60v30h-60zm0 0"/><path d="m392 301h30v30h-30zm0 0"/><path d="m422 271h30v30h-30zm0 0"/><path d="m392 241h30v30h-30zm0 0"/><path d="m166 30h346v-30h-346c-24.8125 0-45 20.1875-45 45s20.1875 45 45 45h60c8.269531 0 15 6.730469 15 15v106h-22.898438c-11.015624 0-20.660156-3.480469-26.457031-9.542969-3.511719-3.671875-7.433593-6.886719-11.644531-9.628906v-25.828125c0-24.8125-20.1875-45-45-45h-30c-39.925781 0-72.652344 31.359375-74.871094 70.738281-18.117187 11.828125-30.128906 32.269531-30.128906 55.476563v196.664062c0 35.644532 27.328125 66.550782 62.921875 68.050782 30.578125 1.28125 59.164063-15.554688 72.839844-42.914063 31.09375-62.1875 28.535156-57.113281 29.292969-58.464844 7.960937 7.113281 18.453124 11.449219 29.945312 11.449219 19.554688 0 36.230469-12.542969 42.421875-30h37.160156c6.191407 17.457031 22.863281 30 42.421875 30 11.488282 0 21.984375-4.335938 29.945313-11.449219.765625 1.363281-1.804688-3.726562 29.289062 58.464844 13.191407 26.378906 40.242188 42.984375 69.566407 42.984375 1.085937 0 2.183593-.023438 3.273437-.070312 35.605469-1.5 62.921875-32.417969 62.921875-68.050782v-196.664062c0-23.207032-12.007812-43.648438-30.128906-55.476563-2.21875-39.378906-34.945313-70.738281-74.871094-70.738281h-30c-24.8125 0-45 20.1875-45 45v25.53125c-3.675781 2.386719-7.046875 5.148438-10.039062 8.28125-6.796876 7.109375-16.339844 11.1875-26.175782 11.1875h-24.785156v-106c0-24.8125-20.1875-45-45-45h-60c-8.269531 0-15-6.730469-15-15 0-8.273438 6.730469-15 15-15zm-61 121h30c8.269531 0 15 6.730469 15 15v15.308594c-2.058594-.199219-4.132812-.308594-6.214844-.308594 0 0-80.023437.039062-81.242187.105469 6.164062-17.511719 22.863281-30.105469 42.457031-30.105469zm90 241c-8.269531 0-15-6.730469-15-15s6.730469-15 15-15 15 6.730469 15 15-6.730469 15-15 15zm122 0c-8.269531 0-15-6.730469-15-15s6.730469-15 15-15 15 6.730469 15 15-6.726562 15-15 15zm45-226c0-8.269531 6.730469-15 15-15h30c19.59375 0 36.292969 12.59375 42.457031 30.105469-1.214843-.066407-2.4375-.105469-3.671875-.105469h-75.6875c-2.75 0-5.449218.148438-8.097656.414062zm-18.355469 54.542969c5.796875-6.0625 15.441407-9.742188 26.453125-9.742188h75.6875c19.96875 0 36.214844 16.445313 36.214844 36.414063v196.664062c0 20.203125-15.335938 37.285156-34.183594 38.078125-18.773437.78125-36.34375-9.554687-44.746094-26.355469l-28.5-57c-3.25-6.5-7.597656-12.417968-12.765624-17.515624 2.40625-26.542969-18.574219-49.085938-44.804688-49.085938-19.554688 0-36.226562 12.542969-42.421875 30h-37.15625c-6.195313-17.457031-22.867187-30-42.421875-30-26.214844 0-47.210938 22.527344-44.804688 49.085938-5.167968 5.097656-9.515624 11.019531-12.765624 17.515624l-28.5 57c-8.402344 16.800782-25.949219 27.15625-44.746094 26.355469-18.847656-.796875-34.183594-17.878906-34.183594-38.078125v-196.664062c0-19.96875 16.246094-36.214844 36.214844-36.214844h77.570312c9.835938 0 19.375 4.078125 26.175782 11.1875 11.597656 12.128906 28.695312 18.8125 48.140624 18.8125h77.6875c17.984376 0 35.425782-7.457031 47.855469-20.457031zm0 0"/></svg>