<svg height="512pt" viewBox="0 0 512 512" width="512pt" xmlns="http://www.w3.org/2000/svg"><path d="m377 0c-56.207031 0-103.308594 26.808594-124.078125 62.609375-8.910156-1.0625-17.925781-1.609375-26.921875-1.609375-124.617188 0-226 100.933594-226 225 0 60.101562 23.582031 116.78125 66.402344 159.597656 42.816406 42.820313 99.496094 66.402344 159.597656 66.402344 124.066406 0 225-101.382812 225-226 0-29.6875-5.636719-58.296875-16.742188-85.292969 42.53125-15.859375 77.742188-50.746093 77.742188-95.707031 0-63.246094-66.824219-105-135-105zm43.433594 301c-2.492188 32.925781-13.113282 63.597656-29.84375 90h-57.972656c7.554687-27.660156 12.046874-58.222656 13.121093-90zm-119.007813 90h-60.425781v-90.199219h74.730469c-1.164063 32.242188-6.078125 63.128907-14.304688 90.199219zm-270.855469-90h75.691407c1.074219 31.78125 5.566406 62.339844 13.121093 90h-58.816406c-16.816406-26.402344-27.496094-57.074219-29.996094-90zm180.429688-206.972656v56.972656h-49.0625c1.046875-2.304688 2.125-4.566406 3.234375-6.785156 13.019531-26.042969 29.164063-43.519532 45.828125-50.1875zm0 86.972656v90h-74.730469c1.171875-32.300781 6.117188-62.992188 14.394531-90zm-104.738281 90h-75.6875c2.53125-32.949219 13.328125-63.632812 30.328125-90h58.546875c-7.59375 27.613281-12.105469 58.175781-13.1875 90zm30.007812 30h74.730469v90h-60.425781c-8.226563-27.070312-13.140625-57.757812-14.304688-90zm74.730469 120v57.933594c-16.636719-6.730469-32.769531-24.355469-45.8125-50.613282-1.1875-2.390624-2.339844-4.832031-3.460938-7.320312zm30 57.933594v-58.132813h49.273438c-1.121094 2.488281-2.273438 4.929688-3.460938 7.316407-13.042969 26.257812-29.175781 44.085937-45.8125 50.816406zm60-207.933594h-60v-90h40.910156c5.875 4.410156 12.261719 8.425781 19.089844 11.972656zm-60-120v-57.03125c.277344.109375.550781.21875.828125.335938-.542969 3.855468-.828125 7.757812-.828125 11.695312 0 15.6875 4.488281 31.042969 13.0625 45zm-87.011719-46.363281c-5.578125 7.757812-10.8125 16.492187-15.648437 26.164062-3.214844 6.425781-6.203125 13.171875-8.964844 20.199219h-44.671875c19.335937-20.023438 42.914063-35.964844 69.285156-46.363281zm-69.953125 316.363281h45.1875c2.796875 7.1875 5.832032 14.089844 9.097656 20.664062 4.914063 9.898438 10.242188 18.824219 15.917969 26.734376-26.777343-10.574219-50.683593-26.878907-70.203125-47.398438zm213.875 47.1875c5.621094-7.859375 10.898438-16.710938 15.769532-26.523438 3.265624-6.570312 6.300781-13.675781 9.101562-20.863281h44.460938c-19.296876 20.382813-42.902344 36.808594-69.332032 47.386719zm122.511719-197.1875h-74.6875c-.253906-7.453125-.695313-14.867188-1.328125-22.195312l37.917969-37.917969c7.691406-.277344 15.273437-1.082031 22.691406-2.351563 8.636719 19.867188 13.78125 40.792969 15.40625 62.464844zm-50.636719-90-38.785156 38.785156v-46.085937c-31.238281-13.636719-60-33.136719-60-67.699219 0-41.195312 48.542969-76 106-76 48.570312 0 105 27.953125 105 75 0 34.078125-36.578125 76-112.214844 76zm0 0"/><path d="m331 106c0 8.285156-6.714844 15-15 15s-15-6.714844-15-15 6.714844-15 15-15 15 6.714844 15 15zm0 0"/><path d="m391 106c0 8.285156-6.714844 15-15 15s-15-6.714844-15-15 6.714844-15 15-15 15 6.714844 15 15zm0 0"/><path d="m451 106c0 8.285156-6.714844 15-15 15s-15-6.714844-15-15 6.714844-15 15-15 15 6.714844 15 15zm0 0"/></svg>