<svg height="512pt" viewBox="-91 0 512 512" width="512pt" xmlns="http://www.w3.org/2000/svg"><path d="m254.421875 146.394531c0-31.0625-22.933594-55.394531-52.210937-55.394531-14.488282 0-27.234376 5.894531-37.210938 17.125-9.976562-11.230469-22.722656-17.125-37.210938-17.125-29.277343 0-52.210937 24.332031-52.210937 55.394531 0 38.417969 32.929687 59.496094 89.421875 108.457031 55.304688-47.933593 89.421875-69.976562 89.421875-108.457031zm-148.84375 0c0-12.621093 7.628906-25.394531 22.210937-25.394531 16.09375 0 22.324219 19.816406 22.765626 21.292969l3.785156 14.546875c11.328125.007812 9.960937.007812 21.289062.019531l3.816406-14.566406c.4375-1.457031 6.664063-21.292969 22.769532-21.292969 14.582031 0 22.210937 12.773438 22.210937 25.394531 0 20.128907-20.929687 36.113281-59.425781 68.84375-36.636719-31.148437-59.421875-48.378906-59.421875-68.84375zm0 0"/><path d="m229.222656 367.480469c73.902344-111.179688 100.777344-138.007813 100.777344-201.480469 0-91.53125-74.019531-166-165-166s-165 74.46875-165 166c0 63.617188 27.363281 91.027344 100.777344 201.480469-61.972656 11.058593-100.777344 37.277343-100.777344 69.519531 0 57.460938 107.15625 75 165 75 57.832031 0 165-17.535156 165-75 0-32.242188-38.804688-58.460938-100.777344-69.519531zm-199.222656-201.480469c0-74.992188 60.5625-136 135-136s135 61.007812 135 136c0 54.125-17.269531 66.785156-135 243.902344-40.085938-60.304688-135-172.59375-135-243.902344zm135 316c-47.496094 0-135-16.246094-135-45 0-12.566406 28.386719-33.902344 89.070312-42l45.929688 69.097656 45.929688-69.097656c60.683593 8.097656 89.070312 29.433594 89.070312 42 0 30.773438-94.941406 45-135 45zm0 0"/></svg>