<svg height="512pt" viewBox="0 -31 512 512" width="512pt" xmlns="http://www.w3.org/2000/svg"><path d="m105 150c24.8125 0 45-20.1875 45-45s-20.1875-45-45-45-45 20.1875-45 45 20.1875 45 45 45zm0-60c8.269531 0 15 6.730469 15 15s-6.730469 15-15 15-15-6.730469-15-15 6.730469-15 15-15zm0 0"/><path d="m241 150v60h-31v-106.515625h-.019531c-.8125-57.199219-47.589844-103.484375-104.980469-103.484375-57.898438 0-105 47.101562-105 105v345h210v-150h31v60h271v-210zm-136-120c41.355469 0 75 33.644531 75 75s-33.644531 75-75 75-75-33.644531-75-75 33.644531-75 75-75zm0 180c29.355469 0 55.925781-12.113281 75-31.597656v61.597656h-150v-61.597656c19.074219 19.484375 45.644531 31.597656 75 31.597656zm-75 210v-150h150v150zm180-150v-30h31v30zm61-90h30v150h-30zm211 150h-151v-150h151zm0 0"/><path d="m60 360h30v30h-30zm0 0"/><path d="m120 360h30v30h-30zm0 0"/><path d="m120 300h30v30h-30zm0 0"/><path d="m60 300h30v30h-30zm0 0"/></svg>