<svg height="512pt" viewBox="0 0 512 512" width="512pt" xmlns="http://www.w3.org/2000/svg"><path d="m211 227.972656v176.054688l132.042969-88.027344zm30 56.054688 47.957031 31.972656-47.957031 31.972656zm0 0"/><path d="m482 120v-60h-30v-60h-392v60h-30v60h-30v392h512v-392zm-392-90h332v30h-332zm-30 60h392v30h-392zm422 392h-452v-332h452zm0 0"/><path d="m60 181h30v30h-30zm0 0"/><path d="m60 421h30v30h-30zm0 0"/><path d="m422 421h30v30h-30zm0 0"/><path d="m422 181h30v30h-30zm0 0"/><path d="m256 451c74.4375 0 135-60.5625 135-135s-60.5625-135-135-135-135 60.5625-135 135 60.5625 135 135 135zm0-240c57.898438 0 105 47.101562 105 105s-47.101562 105-105 105-105-47.101562-105-105 47.101562-105 105-105zm0 0"/></svg>