<svg height="512pt" viewBox="-31 0 512 512" width="512pt" xmlns="http://www.w3.org/2000/svg"><path d="m330 271v-90h-30v-45c0-74.4375-60.5625-136-135-136s-135 61.5625-135 136v45h-30v270h263.617188c17.660156 27.203125 44.285156 48.632812 76.640624 59.417969l4.742188 1.582031 4.742188-1.582031c59.96875-19.988281 100.257812-76.074219 100.257812-139.285157v-100.132812zm-270-135c0-57.898438 47.101562-106 105-106s105 48.101562 105 106v45h-30v-45c0-41.355469-33.644531-75-75-75s-75 33.644531-75 75v45h-30zm150 45h-90v-45c0-24.8125 20.1875-45 45-45s45 20.1875 45 45zm-180 240v-210h270v60h-60v100.132812c0 17.375 3.050781 34.191407 8.710938 49.867188zm390-49.867188c0 48.589844-29.933594 91.75-75 108.941407-45.066406-17.191407-75-60.351563-75-108.941407v-70.132812h150zm0 0"/><path d="m336.296875 441.652344 8.703125 6.203125 8.703125-6.203125c22.730469-16.195313 36.296875-42.554688 36.296875-70.515625v-40.136719h-90v40.136719c0 27.960937 13.566406 54.320312 36.296875 70.515625zm-6.296875-80.652344h30v10.136719c0 14.355469-5.464844 28.0625-15 38.410156-9.535156-10.347656-15-24.054687-15-38.410156zm0 0"/><path d="m120 331h30v60h30v-60h30v-90h-90zm30-60h30v30h-30zm0 0"/></svg>