<svg height="512pt" viewBox="-29 0 512 512" width="512pt" xmlns="http://www.w3.org/2000/svg"><path d="m271.855469 196c0-24.8125-20.1875-45-45-45s-45 20.1875-45 45 20.1875 45 45 45 45-20.1875 45-45zm-45 15c-8.269531 0-15-6.730469-15-15s6.730469-15 15-15 15 6.730469 15 15-6.730469 15-15 15zm0 0"/><path d="m226.855469 241c-41.355469 0-75 33.644531-75 75v45h150v-45c0-41.355469-33.644531-75-75-75zm45 90h-90v-15c0-24.8125 20.1875-45 45-45s45 20.1875 45 45zm0 0"/><path d="m431.222656 322.027344c-3.023437-1.742188-6.164062-3.082032-9.367187-4.058594v-123.949219c3.203125-.976562 6.347656-2.304687 9.367187-4.046875 21.484375-12.410156 28.875-39.984375 16.46875-61.472656s-39.980468-28.878906-61.46875-16.472656c-2.648437 1.53125-5.078125 3.289062-7.285156 5.238281l-107.894531-63.773437c.527343-2.753907.8125-5.589844.8125-8.492188 0-24.8125-20.1875-45-45-45s-45 20.1875-45 45c0 2.902344.289062 5.738281.8125 8.492188l-107.894531 63.773437c-2.207032-1.949219-4.636719-3.710937-7.28125-5.238281-21.492188-12.40625-49.0625-5.015625-61.472657 16.472656-12.40625 21.488281-5.019531 49.0625 16.472657 61.472656 3.019531 1.742188 6.164062 3.070313 9.363281 4.046875v123.949219c-3.203125.976562-6.34375 2.316406-9.363281 4.058594-21.488282 12.410156-28.878907 39.984375-16.472657 61.472656 12.40625 21.492188 39.988281 28.875 61.472657 16.472656 2.644531-1.53125 5.074218-3.289062 7.28125-5.238281l107.894531 63.773437c-.523438 2.753907-.8125 5.589844-.8125 8.492188 0 24.8125 20.1875 45 45 45s45-20.1875 45-45c0-2.902344-.285157-5.738281-.8125-8.492188l107.894531-63.773437c2.207031 1.949219 4.636719 3.710937 7.285156 5.238281 21.496094 12.410156 49.066406 5.007813 61.46875-16.472656 12.40625-21.488281 5.019532-49.0625-16.46875-61.472656zm-61.472656 16.472656c-5.441406 9.425781-7.070312 20.023438-5.378906 29.996094l-108.511719 64.136718c-7.835937-6.625-17.960937-10.632812-29.003906-10.632812s-21.164063 4.007812-29.003907 10.632812l-108.511718-64.136718c1.695312-9.972656.0625-20.570313-5.378906-29.996094-5.214844-9.03125-13.109376-15.558594-22.105469-19.1875v-126.613281c8.996093-3.628907 16.890625-10.167969 22.105469-19.199219 5.441406-9.425781 7.074218-20.023438 5.378906-29.996094l108.511718-64.136718c7.839844 6.625 17.960938 10.632812 29.003907 10.632812s21.167969-4.007812 29.003906-10.632812l108.511719 64.136718c-1.695313 9.972656-.0625 20.570313 5.378906 29.996094 5.214844 9.03125 13.109375 15.570312 22.105469 19.199219v126.613281c-8.992188 3.628906-16.890625 10.15625-22.105469 19.1875zm31.472656-200.492188c7.160156-4.136718 16.351563-1.671874 20.488282 5.492188 4.136718 7.164062 1.671874 16.355469-5.488282 20.492188-7.164062 4.132812-16.355468 1.671874-20.492187-5.492188s-1.671875-16.355469 5.492187-20.492188zm-174.367187-108.007812c8.269531 0 15 6.730469 15 15s-6.730469 15-15 15-15-6.730469-15-15 6.730469-15 15-15zm-194.855469 113.5c4.136719-7.160156 13.324219-9.628906 20.492188-5.492188 7.160156 4.136719 9.625 13.328126 5.488281 20.492188s-13.324219 9.625-20.488281 5.492188c-7.164063-4.136719-9.628907-13.328126-5.492188-20.492188zm20.492188 230.492188c-7.164063 4.132812-16.355469 1.671874-20.492188-5.492188s-1.671875-16.355469 5.492188-20.492188c7.160156-4.136718 16.351562-1.671874 20.488281 5.492188s1.671875 16.355469-5.488281 20.492188zm174.363281 108.007812c-8.269531 0-15-6.730469-15-15s6.730469-15 15-15 15 6.730469 15 15-6.730469 15-15 15zm194.855469-113.5c-4.136719 7.164062-13.324219 9.628906-20.488282 5.492188-7.164062-4.136719-9.628906-13.328126-5.492187-20.492188 4.132812-7.160156 13.324219-9.628906 20.492187-5.492188 7.160156 4.136719 9.625 13.328126 5.488282 20.492188zm0 0"/></svg>