<svg height="512pt" viewBox="0 0 512 512" width="512pt" xmlns="http://www.w3.org/2000/svg"><path d="m512 451v-451h-512v451h181v31h-30v30h210v-30h-30v-31zm-30-421v331h-452v-331zm-452 361h452v30h-452zm271 91h-90v-31h90zm0 0"/><path d="m121 301h300v-210h-300v-30h-30v270h30zm60-105c0-45.78125 17.769531-75 30-75s30 29.21875 30 75-17.769531 75-30 75-30-29.21875-30-75zm210-16.507812v33.015624c-29.34375 5.980469-52.511719 29.148438-58.492188 58.492188h-78.710937c10.742187-18.769531 17.203125-45.042969 17.203125-75s-6.460938-56.230469-17.203125-75h78.710937c5.980469 29.34375 29.148438 52.511719 58.492188 58.492188zm-27.421875 91.507812c4.527344-12.765625 14.65625-22.894531 27.421875-27.421875v27.421875zm27.421875-122.578125c-12.765625-4.527344-22.894531-14.65625-27.421875-27.421875h27.421875zm-222.796875-27.421875c-10.742187 18.769531-17.203125 45.042969-17.203125 75s6.460938 56.230469 17.203125 75h-47.203125v-150zm0 0"/><path d="m301 181h30v30h-30zm0 0"/></svg>