<svg height="512pt" viewBox="0 0 512 512" width="512pt" xmlns="http://www.w3.org/2000/svg"><path d="m512 .0546875-301-.0546875v92.503906c-3.679688-.976562-7.527344-1.503906-11.484375-1.503906h-67.03125c-22.648437 0-41.84375 16.945312-44.652344 39.417969l-13.824219 110.582031h-74.007812v271h30v-181h37.570312c4.546876 12.863281 14.515626 22.726562 27.070313 27.285156-2.339844 5.441406-3.640625 11.429688-3.640625 17.714844 0 24.8125 20.1875 45 45 45h15v61h-30v30h90v-30h-30v-61h15c24.8125 0 45-20.1875 45-45 0-6.285156-1.300781-12.273438-3.640625-17.714844 12.339844-4.476562 22.277344-13.984375 27.050781-27.433594l36.589844.148438v181h211v-269.941406l-91 .039062v-.699218c0-10.644532-2.800781-20.84375-7.683594-29.519532l98.683594-.019531zm-445.492188 300.9453125h-36.507812v-30h40.257812zm129.492188 90h-60c-8.269531 0-15-6.730469-15-15s6.730469-15 15-15h60c8.269531 0 15 6.730469 15 15s-6.730469 15-15 15zm26.015625-60c-12.011719 0-99.554687 0-112.03125 0-9.03125 0-16.007813-7.882812-14.882813-16.859375l22.5-180c.933594-7.492187 7.332032-13.140625 14.882813-13.140625h67.03125c7.550781 0 13.949219 5.648438 14.886719 13.140625l22.5 180c1.117187 8.960937-5.835938 16.859375-14.886719 16.859375zm32.234375-120.199219 54.664062.210938c-5.023437 8.769531-7.914062 19.175781-7.914062 29.988281v.222656l-43.003906-.171875zm227.75 271.199219-151 .082031v-61.082031h151zm0-91h-151v-59l151-.0625zm0-119.058594v29.058594l-216.503906.054688-3.746094-29.054688zm-151-29.898437v1.15625c0-14.773438 10.738281-29.28125 24.820312-31.742188l10.585938.039063c13.96875 2.554687 24.59375 12.816406 24.59375 31.503906v-.917969zm151-62.042969h-231.503906l-6.328125-49.582031c-.519531-4.164063-1.605469-8.136719-3.167969-11.847657v-87.570312l241-.054688zm0 0"/></svg>