<svg height="512pt" viewBox="0 -16 512 512" width="512pt" xmlns="http://www.w3.org/2000/svg"><path d="m420.964844 167.808594c.015625-.933594.035156-1.867188.035156-2.808594 0-90.980469-74.019531-165-165-165s-165 74.019531-165 165c0 .9375.019531 1.875.035156 2.808594-53.96875 27.269531-91.035156 83.003906-91.035156 147.191406 0 90.980469 74.46875 165 166 165 33.179688 0 64.097656-9.855469 90-26.773438 25.902344 16.917969 56.820312 26.773438 90 26.773438 91.53125 0 166-74.019531 166-165 0-64.1875-37.066406-119.921875-91.035156-147.191406zm-164.964844 247.722656c-25.546875-22.894531-42.339844-55.355469-44.703125-91.6875 14.222656 4.007812 29.214844 6.15625 44.703125 6.15625s30.480469-2.148438 44.703125-6.15625c-2.363281 36.335938-19.15625 68.792969-44.703125 91.6875zm0-115.53125c-15.09375 0-29.617188-2.492188-43.183594-7.082031 5.113282-30.949219 20.785156-58.375 43.183594-78.449219 22.398438 20.074219 38.070312 47.5 43.183594 78.449219-13.566406 4.589843-28.089844 7.082031-43.183594 7.082031zm-71.175781-20.339844c-32.355469-20.15625-55.597657-53.617187-62.023438-92.675781 13.578125-4.527344 28.105469-6.984375 43.199219-6.984375 23.574219 0 45.75 6.078125 65.058594 16.746094-22.777344 22.144531-39.199219 50.792968-46.234375 82.914062zm96.117187-82.914062c19.308594-10.667969 41.484375-16.746094 65.058594-16.746094 15.09375 0 29.621094 2.457031 43.199219 6.984375-6.425781 39.058594-29.667969 72.519531-62.023438 92.675781-7.035156-32.121094-23.457031-60.769531-46.234375-82.914062zm-24.941406-166.746094c71.441406 0 130.089844 55.785156 134.699219 126.082031-14.226563-3.957031-29.21875-6.082031-44.699219-6.082031-33.179688 0-64.097656 9.855469-90 26.773438-25.902344-16.917969-56.820312-26.773438-90-26.773438-15.480469 0-30.472656 2.125-44.699219 6.082031 4.609375-70.296875 63.257813-126.082031 134.699219-126.082031zm-90 420c-74.992188 0-136-60.5625-136-135 0-48.527344 25.933594-91.152344 64.761719-114.949219 10.609375 48.851563 42.90625 89.707031 86.277343 111.917969-.019531 1.007812-.039062 2.015625-.039062 3.03125 0 46.332031 19.203125 88.257812 50.058594 118.253906-19.308594 10.667969-41.484375 16.746094-65.058594 16.746094zm180 0c-23.574219 0-45.75-6.078125-65.058594-16.746094 30.855469-29.996094 50.058594-71.921875 50.058594-118.253906 0-1.015625-.019531-2.023438-.039062-3.03125 43.371093-22.210938 75.667968-63.066406 86.277343-111.917969 38.828125 23.796875 64.761719 66.421875 64.761719 114.949219 0 74.4375-61.007812 135-136 135zm0 0"/></svg>