<svg height="512pt" viewBox="0 0 512.001 512" width="512pt" xmlns="http://www.w3.org/2000/svg"><path d="m331.042969 180.957031v-14.996093c0-41.34375-33.636719-74.984376-74.980469-74.984376h-14.996094v98.765626l-21.207031 21.207031h-38.777344v-29.992188h-89.980469v209.949219h89.980469v-29.992188h39.015625c36.546875 32.855469 74.808594 29.992188 95.949219 29.992188h104.976563v-209.949219zm-179.957031 179.957031h-29.992188v-149.964843h29.992188zm149.964843-179.957031v179.957031h-2.574219c-23.347656 0-45.292968-9.09375-61.804687-25.601562l-4.390625-4.390625h-51.199219v-89.980469h51.199219l38.777344-38.777344v-78.625c17.457031 6.191407 29.992187 22.867188 29.992187 42.421876zm89.980469 179.957031h-59.988281v-29.992187h59.988281zm0-59.988281h-59.988281v-29.992187h59.988281zm0-59.984375h-59.988281v-29.992187h59.988281zm0 0"/><path d="m436.832031 75.171875c-48.476562-48.476563-112.671875-75.171875-180.769531-75.171875s-132.296875 26.695312-180.769531 75.171875c-48.472657 48.472656-75.167969 112.671875-75.167969 180.765625 0 59.300781 21.417969 117.164062 60.445312 163.648438-2.707031 23.078124-15.628906 45.566406-34.625 59.742187l-25.945312 19.363281 44.808594 10.324219c34.660156 7.988281 71.089844-1.097656 97.683594-23.777344 35.082031 17.457031 74.117187 26.636719 113.570312 26.636719 68.097656 0 132.296875-26.695312 180.769531-75.167969 48.472657-48.472656 75.167969-112.671875 75.167969-180.769531 0-68.09375-26.695312-132.292969-75.167969-180.765625zm-180.769531 406.710937c-38.089844 0-75.71875-9.6875-108.820312-28.019531l-10.15625-5.625-7.988282 8.421875c-16.339844 17.226563-39.582031 26.261719-63.121094 25.121094 14.972657-19.058594 23.972657-42.488281 25.015626-66.589844l.265624-6.035156-3.996093-4.53125c-36.851563-41.796875-57.144531-94.605469-57.144531-148.6875 0-124.585938 101.359374-225.945312 225.945312-225.945312s225.945312 101.359374 225.945312 225.945312-101.359374 225.945312-225.945312 225.945312zm0 0"/></svg>