<svg height="512pt" viewBox="-61 0 512 512" width="512pt" xmlns="http://www.w3.org/2000/svg"><path d="m0 0v512h390v-512zm326.132812 30-68.019531 46.101562 67.34375 44.898438h-260.914062l67.34375-44.898438-68.019531-46.101562zm-296.132812 13.289062 48.113281 32.609376-48.113281 32.074218zm330 438.710938h-330v-331h330zm0-374.027344-48.113281-32.074218 48.113281-32.613282zm0 0"/><path d="m90 256c0 57.898438 47.101562 105 105 105s105-47.101562 105-105v-45h30v-30h-90v30h30v45c0 41.355469-33.644531 75-75 75s-75-33.644531-75-75v-45h30v-30h-90v30h30zm0 0"/></svg>