<svg height="512pt" viewBox="0 0 512 512" width="512pt" xmlns="http://www.w3.org/2000/svg"><path d="m512 148.933594-42.6875-42.585938 42.652344-42.738281-63.609375-63.609375-126.820313 127.054688c-20.914062-4.121094-43.390625-6.285157-65.527344-6.285157-125.132812 0-255.882812 75.425781-255.882812 194.910157 0 44.636718 19.464844 87.640624 55.023438 122.011718-5.449219 16.742188-15.625 31.21875-29.207032 41.355469l-25.941406 19.359375 44.800781 10.320312c32.195313 7.421876 64.886719.203126 91.109375-19.816406 36.785156 14.859375 78.097656 22.679688 120.097656 22.679688 141.09375 0 255.882813-87.886719 255.882813-195.910156 0-42.777344-18.011719-83.375-50.253906-116.488282zm-42.453125.003906-30.308594 30.242188c-7.890625-6.148438-16.363281-11.925782-25.371093-17.285157l34.261718-34.324219zm-63.875-63.726562 21.226563 21.179687-105.277344 105.472656-31.796875 10.601563 10.601562-31.8125zm42.703125-42.785157 21.203125 21.207031-21.496094 21.535157-21.226562-21.179688zm33.53125 273.253907c0 102.945312-119.777344 165.921874-225.898438 165.921874-49.21875 0-86.078124-10.25-125.480468-27.699218-18.238282 16.484375-35.714844 29.007812-64.882813 27.570312 16.707031-21.933594 20.355469-42.507812 22.9375-53.960937-34.292969-30.347657-58.472656-64.765625-58.472656-111.832031 0-102.214844 118.828125-164.925782 225.898437-164.925782 13.1875 0 26.484376.84375 39.417969 2.464844l-21.210937 21.25-31.804688 95.410156 95.421875-31.808594 54.085938-54.183593c9.265625 5.113281 17.90625 10.695312 25.886719 16.6875l-33.238282 33.164062 21.179688 21.226563 34.640625-34.566406c26.652343 27.511718 41.519531 60.667968 41.519531 95.28125zm0 0"/><path d="m136.0625 270.699219c-24.800781 0-44.980469 20.179687-44.980469 44.980469 0 24.800781 20.179688 44.976562 44.980469 44.976562s44.980469-20.175781 44.980469-44.976562c0-24.800782-20.179688-44.980469-44.980469-44.980469zm0 59.972656c-8.265625 0-14.992188-6.726563-14.992188-14.992187 0-8.269532 6.726563-14.992188 14.992188-14.992188s14.992188 6.722656 14.992188 14.992188c0 8.265624-6.726563 14.992187-14.992188 14.992187zm0 0"/><path d="m257.007812 270.699219c-24.800781 0-44.980468 20.179687-44.980468 44.980469 0 24.800781 20.179687 44.976562 44.980468 44.976562 24.800782 0 44.980469-20.175781 44.980469-44.976562 0-24.800782-20.179687-44.980469-44.980469-44.980469zm0 59.972656c-8.265624 0-14.992187-6.726563-14.992187-14.992187 0-8.269532 6.726563-14.992188 14.992187-14.992188 8.265626 0 14.992188 6.722656 14.992188 14.992188 0 8.265624-6.726562 14.992187-14.992188 14.992187zm0 0"/><path d="m331.972656 315.679688c0 24.800781 20.179688 44.976562 44.980469 44.976562s44.980469-20.175781 44.980469-44.976562c0-24.800782-20.179688-44.980469-44.980469-44.980469s-44.980469 20.179687-44.980469 44.980469zm59.972656 0c0 8.265624-6.726562 14.992187-14.992187 14.992187-8.269531 0-14.992187-6.726563-14.992187-14.992187 0-8.269532 6.722656-14.992188 14.992187-14.992188 8.265625 0 14.992187 6.722656 14.992187 14.992188zm0 0"/></svg>