<svg height="512pt" viewBox="-61 0 512 512" width="512pt" xmlns="http://www.w3.org/2000/svg"><path d="m390 121h-33.265625l-30-121h-263.46875l-30 121h-33.265625v30h32.285156l60 361h205.429688l60-361h32.285156zm-210-91h30v31h-30zm-93.265625 0h63.265625v61h90v-61h63.265625l22.5625 91h-261.65625zm153.265625 286c0 40.652344-20.605469 75-45 75s-45-34.347656-45-75 20.605469-75 45-75 45 34.347656 45 75zm22.894531-45h44.460938l-14.957031 90h-29.503907c4.636719-13.886719 7.105469-29.195312 7.105469-45s-2.46875-31.113281-7.105469-45zm-135.789062 90h-29.503907l-14.957031-90.199219h44.460938c-4.636719 13.886719-7.105469 29.394531-7.105469 45.199219s2.46875 31.113281 7.105469 45zm-9.390625 121-15.125-91h39.621094c13.996093 19.375 32.617187 30 52.789062 30s38.796875-10.625 52.789062-30h39.621094l-15.125 91zm194.628906-241h-64.554688c-13.996093-19.375-32.617187-30-52.789062-30s-38.796875 10.625-52.789062 30h-64.554688l-14.957031-90h264.601562zm0 0"/></svg>