<svg height="512pt" viewBox="0 0 512 512" width="512pt" xmlns="http://www.w3.org/2000/svg"><path d="m512 451v-451h-512v451h181v31h-30v30h210v-30h-30v-31zm-30-421v331h-452v-331zm-452 361h452v30h-452zm271 91h-90v-31h90zm0 0"/><path d="m121 330c33.644531 0 60-19.765625 60-45v-167.703125l120-24v92.558594c-8.777344-3.730469-18.992188-5.855469-30-5.855469-33.644531 0-60 19.765625-60 45s26.355469 45 60 45 60-19.765625 60-45v-168.296875l-180 36v153.152344c-8.777344-3.730469-18.992188-5.855469-30-5.855469-33.644531 0-60 19.765625-60 45s26.355469 45 60 45zm150-90c-18.3125 0-30-8.882812-30-15s11.6875-15 30-15 30 8.882812 30 15-11.6875 15-30 15zm-150 30c18.3125 0 30 8.882812 30 15s-11.6875 15-30 15-30-8.882812-30-15 11.6875-15 30-15zm0 0"/><path d="m361 60h91v30h-91zm0 0"/><path d="m361 120h91v30h-91zm0 0"/><path d="m361 180h91v30h-91zm0 0"/><path d="m361 240h91v30h-91zm0 0"/><path d="m361 300h91v30h-91zm0 0"/></svg>