<svg height="512pt" viewBox="0 0 512 512" width="512pt" xmlns="http://www.w3.org/2000/svg"><path d="m0 0v512h512v-512zm482 30v91h-452v-91zm-452 452v-331h452v331zm0 0"/><path d="m241 61h210v30h-210zm0 0"/><path d="m61 61h30v30h-30zm0 0"/><path d="m121 61h30v30h-30zm0 0"/><path d="m181 61h30v30h-30zm0 0"/><path d="m421 301h-30v-30h30v-30h-30v-60h-90v60h-90v-60h-90v60h-30v30h30v30h-30v60h-30v30h30v60h90v-60h150v60h90v-60h30v-30h-30zm-90-90h30v90h-30zm-180 0h30v90h-30zm0 210h-30v-90h30zm30-60v-30h30v-60h90v60h30v30zm210 60h-30v-90h30zm0 0"/></svg>