<svg height="512pt" viewBox="0 -16 512 512" width="512pt" xmlns="http://www.w3.org/2000/svg"><path d="m150 433.027344 132.042969-88.027344-132.042969-88.027344zm30-120 47.957031 31.972656-47.957031 31.972656zm0 0"/><path d="m512 230.90625-122 60v-80.90625h-40.722656c24.953125-22.007812 40.722656-54.195312 40.722656-90 0-66.167969-53.832031-120-120-120-54.847656 0-101.214844 36.984375-115.476562 87.324219-16.367188-16.839844-39.242188-27.324219-64.523438-27.324219-49.625 0-90 40.375-90 90 0 23.03125 8.699219 44.066406 22.980469 60h-22.980469v270h390v-80.90625l122 60zm-242-200.90625c49.625 0 90 40.375 90 90s-40.375 90-90 90-90-40.375-90-90 40.375-90 90-90zm-79.277344 180h-33.703125c5.785157-6.453125 10.652344-13.742188 14.394531-21.664062 5.550782 7.976562 12.035157 15.253906 19.308594 21.664062zm-160.722656-60c0-33.085938 26.914062-60 60-60s60 26.914062 60 60-26.914062 60-60 60-60-26.914062-60-60zm330 300h-330v-210h330zm122-39.09375-92-45.246094v-41.320312l92-45.246094zm0 0"/><path d="m270 180c33.085938 0 60-26.914062 60-60s-26.914062-60-60-60-60 26.914062-60 60 26.914062 60 60 60zm0-90c16.542969 0 30 13.457031 30 30s-13.457031 30-30 30-30-13.457031-30-30 13.457031-30 30-30zm0 0"/><path d="m90 120c-16.542969 0-30 13.457031-30 30s13.457031 30 30 30 30-13.457031 30-30-13.457031-30-30-30zm0 0"/></svg>