<svg height="512pt" viewBox="0 -31 512 512" width="512pt" xmlns="http://www.w3.org/2000/svg"><path d="m206.605469 199.394531-21.210938 21.210938 55.605469 55.609375 85.605469-85.609375-21.210938-21.210938-64.394531 64.390625zm0 0"/><path d="m511.804688 225c-20.949219-24.300781-44.214844-47.34375-79.4375-72.246094-58.066407-41.054687-119.050782-62.753906-176.367188-62.753906s-118.300781 21.699219-176.363281 62.753906c-34.621094 24.472656-57.992188 47.367188-79.441407 72.246094 20.949219 24.300781 44.214844 47.34375 79.4375 72.246094 58.066407 41.054687 119.050782 62.753906 176.367188 62.753906s118.300781-21.699219 176.363281-62.753906c34.621094-24.472656 57.992188-47.367188 79.441407-72.246094zm-150.804688 0c0 57.886719-47.09375 105-105 105-57.847656 0-105-47.058594-105-105 0-57.886719 47.09375-105 105-105 57.847656 0 105 47.058594 105 105zm-320.414062 0c10.835937-10.988281 30.722656-29.691406 56.988281-48.191406 13.285156-9.355469 29.261719-19.355469 47.265625-28.320313-15.027344 21.761719-23.839844 48.125-23.839844 76.511719s8.8125 54.75 23.839844 76.511719c-18-8.964844-33.980469-18.964844-47.265625-28.320313-26.269531-18.5-46.152344-37.207031-56.988281-48.191406zm326.574218 76.511719c15.027344-21.761719 23.839844-48.125 23.839844-76.511719s-8.8125-54.75-23.839844-76.511719c18 8.964844 33.980469 18.964844 47.265625 28.320313 26.269531 18.5 46.148438 37.203125 56.988281 48.191406-10.839843 10.988281-30.722656 29.691406-56.988281 48.191406-13.285156 9.355469-29.261719 19.355469-47.265625 28.320313zm0 0"/><path d="m30 30h90v-30h-120v120h30zm0 0"/><path d="m392 0v30h90v90h30v-120zm0 0"/><path d="m30 330h-30v120h120v-30h-90zm0 0"/><path d="m482 420h-90v30h120v-120h-30zm0 0"/></svg>