<svg height="512pt" viewBox="-62 0 512 512" width="512pt" xmlns="http://www.w3.org/2000/svg"><path d="m327.382812 271v-30h-60v-30h-60v-85.640625c26.523438-23.089844 44.421876-42.574219 44.421876-69.964844 0-31.0625-22.933594-55.394531-52.210938-55.394531-14.488281 0-27.234375 5.894531-37.210938 17.125-9.976562-11.230469-22.722656-17.125-37.210937-17.125-29.277344 0-52.210937 24.332031-52.210937 55.394531 0 25.121094 15.496093 43.210938 32.242187 59.011719 3.796875 3.582031 7.855469 7.203125 12.179687 10.960938v220.765624l-55.230468-41.117187-62.152344 62.15625 143.714844 144.828125h174.878906l4.394531-4.394531c40.921875-40.921875 64.394531-97.949219 64.394531-156.457031v-80.148438zm-224.421874-215.605469c0-12.621093 7.628906-25.394531 22.210937-25.394531 16.09375 0 22.324219 19.816406 22.765625 21.292969l3.785156 14.546875c11.328125.011718 9.960938.007812 21.289063.019531l3.816406-14.566406c.433594-1.457031 6.664063-21.292969 22.765625-21.292969 14.582031 0 22.210938 12.773438 22.210938 25.394531 0 17.875-16.164063 32.308594-49.785157 60.691407-1.523437 1.28125-3.070312 2.589843-4.636719 3.914062h-10c-1.566406-1.320312-3.109374-2.625-4.625-3.90625-10.417968-8.792969-19.417968-16.390625-26.964843-23.507812-16.429688-15.503907-22.832031-25.933594-22.832031-37.191407zm254.421874 295.753907c0 48.546874-18.648437 95.882812-51.359374 130.851562h-149.816407l-113.863281-114.746094 22.6875-22.691406 52.351562 38.96875v7.46875h30v-241h30v211h30v-120h30v120h30v-90h30v90h30v-60h30zm0 0"/></svg>