<svg height="512pt" viewBox="0 0 512 512" width="512pt" xmlns="http://www.w3.org/2000/svg"><path d="m436.3125 436.3125c48.164062-48.164062 75.6875-112.199219 75.6875-180.3125s-27.523438-132.148438-75.6875-180.3125-112.199219-75.6875-180.3125-75.6875-132.148438 27.523438-180.3125 75.6875-75.6875 112.199219-75.6875 180.3125 27.523438 132.148438 75.6875 180.3125 112.199219 75.6875 180.3125 75.6875h256v-30h-135.746094c21.824219-11.703125 42.050782-27.683594 60.058594-45.6875zm-406.3125-180.3125c0-124.066406 101.933594-226 226-226s226 101.933594 226 226-101.933594 226-226 226-226-101.933594-226-226zm0 0"/><path d="m361 121h30v30h-30zm0 0"/><path d="m361 361h30v30h-30zm0 0"/><path d="m121 361h30v30h-30zm0 0"/><path d="m121 121h30v30h-30zm0 0"/><path d="m256 301c-31.90625 0-60 31.609375-60 75 0 44.726562 29.167969 75 60 75 31.90625 0 60-31.609375 60-75 0-44.726562-29.167969-75-60-75zm0 30c11.882812 0 22.40625 11.003906 27.21875 26.445312-8.820312 2.359376-17.933594 3.554688-27.21875 3.554688s-18.398438-1.195312-27.21875-3.554688c4.8125-15.441406 15.335938-26.445312 27.21875-26.445312zm0 90c-13.527344 0-25.296875-14.261719-28.878906-33.09375 9.425781 2.054688 19.082031 3.09375 28.878906 3.09375s19.453125-1.039062 28.878906-3.09375c-3.582031 18.832031-15.351562 33.09375-28.878906 33.09375zm0 0"/><path d="m256 211c31.90625 0 60-31.609375 60-75 0-44.726562-29.167969-75-60-75-31.90625 0-60 31.609375-60 75 0 44.726562 29.167969 75 60 75zm0-30c-11.882812 0-22.40625-11.003906-27.21875-26.445312 8.820312-2.359376 17.933594-3.554688 27.21875-3.554688s18.398438 1.195312 27.21875 3.554688c-4.8125 15.441406-15.335938 26.445312-27.21875 26.445312zm0-90c13.527344 0 25.296875 14.261719 28.878906 33.09375-9.425781-2.054688-19.082031-3.09375-28.878906-3.09375s-19.453125 1.039062-28.878906 3.09375c3.582031-18.832031 15.351562-33.09375 28.878906-33.09375zm0 0"/><path d="m451 256c0-31.902344-31.601562-60-75-60-44.726562 0-75 29.167969-75 60 0 31.902344 31.601562 60 75 60 44.726562 0 75-29.167969 75-60zm-30 0c0 13.527344-14.261719 25.296875-33.09375 28.878906 2.054688-9.425781 3.09375-19.082031 3.09375-28.878906s-1.039062-19.453125-3.09375-28.878906c18.832031 3.582031 33.09375 15.351562 33.09375 28.878906zm-90 0c0-11.878906 11.003906-22.40625 26.441406-27.21875 2.363282 8.820312 3.558594 17.933594 3.558594 27.21875s-1.195312 18.398438-3.558594 27.21875c-15.4375-4.8125-26.441406-15.339844-26.441406-27.21875zm0 0"/><path d="m136 196c-44.726562 0-75 29.167969-75 60 0 31.902344 31.601562 60 75 60 44.726562 0 75-29.167969 75-60 0-31.902344-31.601562-60-75-60zm-45 60c0-13.527344 14.261719-25.296875 33.09375-28.878906-2.054688 9.425781-3.09375 19.082031-3.09375 28.878906s1.039062 19.453125 3.09375 28.878906c-18.832031-3.582031-33.09375-15.351562-33.09375-28.878906zm63.558594 27.21875c-2.363282-8.820312-3.558594-17.933594-3.558594-27.21875s1.195312-18.398438 3.558594-27.21875c15.4375 4.8125 26.441406 15.339844 26.441406 27.21875s-11.003906 22.40625-26.441406 27.21875zm0 0"/></svg>